# xmcd
#
# Track frame offsets: 
#        150
#        100800
#        143625
#        207900
#
# Disc length: 3811 seconds
#
# Revision: 2
# Processed by: cddbd v1.5.2PL0 Copyright (c) Steve Scherf et al.
# Submitted via: ExactAudioCopy v0.99pb5
#
DISCID=300ee104
DTITLE=Bratislava Radio Symphony Orchestra, R.Stankovsky - Miaskovsky 
DTITLE=Symphony No.6 
DYEAR=1991
DGENRE=Symphonic
TTITLE0=I - Poco largamente - Allegro feroce
TTITLE1=II - Presto tenebroso - Andante moderato
TTITLE2=III - Andante appassionato
TTITLE3=IV - Allegro vivace 
EXTD=YEAR: 1991
EXTT0=
EXTT1=
EXTT2=
EXTT3=
PLAYORDER=
